<?xml version="1.0" encoding="UTF-8"?>
<svg version="1.1" xmlns="http://www.w3.org/2000/svg" width="920" height="1060">
<path d="M0 0 C303.6 0 607.2 0 920 0 C920 349.8 920 699.6 920 1060 C616.4 1060 312.8 1060 0 1060 C0 710.2 0 360.4 0 0 Z " fill="#FDFDFD" transform="translate(0,0)"/>
<path d="M0 0 C303.6 0 607.2 0 920 0 C920 349.8 920 699.6 920 1060 C616.4 1060 312.8 1060 0 1060 C0 710.2 0 360.4 0 0 Z M609 40 C609 69.37 609 98.74 609 129 C618.57 129 628.14 129 638 129 C637.8707605 144.57113109 637.8707605 144.57113109 637.79101562 151.26171875 C637.7369044 155.80839864 637.68578751 160.35496088 637.65356445 164.90185547 C637.62735509 168.57198012 637.586832 172.24170451 637.53681374 175.91157913 C637.52026313 177.30438849 637.50867595 178.69726688 637.50238609 180.09016037 C637.45571987 189.48347846 637.33501032 200.39798761 631 208 C624.62860179 213.39875472 619.51758341 214.88458803 611.27734375 214.8046875 C609.79821251 214.82524704 609.79821251 214.82524704 608.28919983 214.84622192 C605.1714932 214.88330489 602.05539456 214.87982161 598.9375 214.875 C596.81052222 214.89314192 594.6835654 214.91394928 592.55664062 214.9375 C587.3708269 214.98914788 582.18605668 215.00444474 577 215 C576.80204834 213.86848511 576.80204834 213.86848511 576.60009766 212.71411133 C575.79232579 209.06073467 574.10032905 205.97422371 572.375 202.6875 C569.51408594 197.11522845 566.83943213 191.50868857 564.375 185.75 C562.32429671 180.96115823 560.18175971 176.26851152 557.8125 171.625 C555.68640621 167.4565169 553.87833705 163.28598551 552.2109375 158.91796875 C550.23062804 154.14606176 547.93528068 149.5161772 545.64111328 144.88793945 C545.30063965 144.18499756 544.96016602 143.48205566 544.609375 142.7578125 C544.29967773 142.1302002 543.98998047 141.50258789 543.67089844 140.85595703 C543 139 543 139 543 135 C544.49023438 133.66308594 544.49023438 133.66308594 546.59375 132.484375 C547.36960449 132.04158203 548.14545898 131.59878906 548.94482422 131.14257812 C550.20963623 130.45325195 550.20963623 130.45325195 551.5 129.75 C552.78221436 129.02973633 552.78221436 129.02973633 554.09033203 128.29492188 C560.84750371 124.53523606 567.7207529 121.02525802 574.6796875 117.65625 C577.56234463 116.2183128 580.34126459 114.81966682 583 113 C583 112.34 583 111.68 583 111 C582.17757812 110.69707031 581.35515625 110.39414063 580.5078125 110.08203125 C575.2171052 108.09648867 570.01824497 106.10849367 565 103.5 C561.38287188 101.62466712 557.75828332 100.103131 553.9375 98.6875 C548.64754669 96.71233486 543.58324957 94.44404455 538.5 92 C532.52519553 89.13198773 526.53003446 86.58560342 520.3125 84.27734375 C515.76643968 82.52432285 511.32571203 80.5565687 506.87084961 78.58569336 C502.93190041 76.84372989 498.9818954 75.14246432 495 73.5 C476.06412565 65.66178972 476.06412565 65.66178972 468.8125 61.875 C464.47457412 59.62959784 459.90194282 58.01632555 455.33203125 56.30859375 C451.19635992 54.6843852 447.22187675 52.79244337 443.2421875 50.8203125 C440.88254103 49.69308256 440.88254103 49.69308256 438 51 C437.07316754 52.68557527 437.07316754 52.68557527 436.5 54.8125 C436.12681641 56.03839844 436.12681641 56.03839844 435.74609375 57.2890625 C434.69956421 61.09163579 433.75102291 64.91465476 432.81640625 68.74609375 C430.83809603 76.63093782 428.69466519 84.44644941 425.71875 92.015625 C423.64977352 97.7277992 422.25381019 103.68753521 421 109.625 C420.37621278 112.52415791 419.61543518 115.29985211 418.65625 118.10546875 C418.39070313 118.89050781 418.12515625 119.67554687 417.8515625 120.484375 C417.43003906 121.72960937 417.43003906 121.72960937 417 123 C409.95800824 142.08848969 409.95800824 142.08848969 407 162 C406.01 161.67 405.02 161.34 404 161 C403.78085937 159.76507813 403.56171875 158.53015625 403.3359375 157.2578125 C397.83663207 127.39637605 386.19722328 102.9719756 365 81 C364.28328125 80.22011719 363.5665625 79.44023438 362.828125 78.63671875 C352.08967807 67.27253525 338.74567242 59.20544592 325 52 C324.24235352 51.58041016 323.48470703 51.16082031 322.70410156 50.72851562 C316.41515495 47.36541585 310.35112681 45.6212967 303.375 44.25 C302.39015625 44.04246094 301.4053125 43.83492187 300.390625 43.62109375 C270.27269483 37.39672151 238.9232988 39.37404893 212 55 C210.44345703 55.81404297 210.44345703 55.81404297 208.85546875 56.64453125 C178.91441296 72.77267533 154.39816919 104.12708476 143.90234375 136.08984375 C140.95868904 147.64099564 140.62908058 159.34964481 140.6875 171.1875 C140.69023422 172.33862274 140.69023422 172.33862274 140.69302368 173.51300049 C140.81765837 204.70739957 150.24745416 230.48384643 170 255 C171.03833984 256.35544922 171.03833984 256.35544922 172.09765625 257.73828125 C177.72985031 264.92007367 184.14693782 272.19677681 191.8605957 277.20898438 C194.96306656 279.38083253 196.72165129 280.87312657 197.65039062 284.63305664 C197.91275545 287.74050359 197.96885719 290.75550779 197.9375 293.875 C197.9684375 299.381875 197.9684375 299.381875 198 305 C186.12 305 174.24 305 162 305 C160.55435804 310.05974685 159.52939073 314.5865063 158.96484375 319.7421875 C158.88126114 320.46882599 158.79767853 321.19546448 158.71156311 321.94412231 C158.53652864 323.47837408 158.36440998 325.01296103 158.19506836 326.54785156 C157.94193233 328.8349536 157.67779915 331.12057645 157.41210938 333.40625 C155.67224977 348.65542607 154.80458145 363.83441263 154.8125 379.1875 C154.8117749 379.84821503 154.8110498 380.50893005 154.81030273 381.18966675 C154.81134193 389.85875034 155.13010583 398.43446113 156 407.0625 C156.08354736 407.95686768 156.16709473 408.85123535 156.25317383 409.77270508 C156.6019012 413.42175243 156.99979047 416.99878865 157.625 420.61328125 C159.00403803 432.60803916 150.99192963 442.24527519 144.890625 451.94482422 C142.00401621 456.60947071 139.33166319 461.38245273 136.6875 466.1875 C135.99563599 467.41557373 135.99563599 467.41557373 135.28979492 468.66845703 C133.21818456 472.41595467 131.46031519 475.6660891 131 480 C130.34 480 129.68 480 129 480 C128.57871826 480.76739502 128.57871826 480.76739502 128.14892578 481.55029297 C118.8556908 498.47415983 109.50712231 515.36139449 99.97729492 532.15332031 C95.54179028 539.99062316 91.21697964 547.88501994 86.95751953 555.81933594 C84.99365133 559.45643355 83.06067467 563.00236974 80.66015625 566.37109375 C78.64403619 569.04547536 78.64403619 569.04547536 79 573 C78.34 573 77.68 573 77 573 C76.27296875 574.36318359 76.27296875 574.36318359 75.53125 575.75390625 C75.0506311 576.65435669 75.0506311 576.65435669 74.56030273 577.57299805 C73.84729147 578.9108587 73.1358918 580.24957937 72.42602539 581.58911133 C70.53804992 585.14614851 68.62550515 588.68471919 66.65234375 592.1953125 C66.09546875 593.1996936 66.09546875 593.1996936 65.52734375 594.22436523 C64.81184234 595.51319742 64.08684404 596.79681203 63.3515625 598.07446289 C61.40517897 601.44015938 61.40517897 601.44015938 61.41430664 605.1965332 C61.60758545 605.79167725 61.80086426 606.38682129 62 607 C82.27787591 613.13275124 82.27787591 613.13275124 102.99609375 617.4296875 C105.8960911 617.98027217 108.27674334 618.89312794 111 620 C112.76218725 620.34002388 114.53480468 620.62858679 116.3125 620.875 C124.84960777 622.21639696 133.15543726 624.47226272 141.50683594 626.65527344 C144.12802153 627.33876254 146.75143449 628.01321227 149.375 628.6875 C150.58639648 629.00908081 150.58639648 629.00908081 151.82226562 629.3371582 C157.67850102 630.83772874 162.83947704 631.3839477 169 632 C169 693.38 169 754.76 169 818 C217.51 818 266.02 818 316 818 C316 861.56 316 905.12 316 950 C432.16 950 548.32 950 668 950 C667.69562615 883.11915142 667.69562615 883.11915142 667.21679688 816.23950195 C667.20800781 803.28552246 667.20800781 803.28552246 667.22424316 797.21549988 C667.23005515 792.98739771 667.19111296 788.76228588 667.12463379 784.53471375 C667.04114118 779.13073071 667.03533397 773.73174701 667.08422184 768.32739675 C667.08915692 766.35128338 667.06748459 764.37486832 667.01524258 762.39943945 C666.65712307 748.06008788 666.65712307 748.06008788 670.56960487 742.94990134 C674.34736261 739.15112974 678.56859113 736.1366215 683.07176304 733.25972497 C685.77422434 731.49419612 688.2054336 729.49983933 690.6875 727.4375 C691.56148437 726.71820312 692.43546875 725.99890625 693.3359375 725.2578125 C702.8036767 717.23383412 711.59095533 708.50601958 720.375 699.75 C720.84926422 699.27841461 721.32352844 698.80682922 721.81216431 698.32095337 C730.50215833 689.66820621 738.46825775 680.67261419 746 671 C746.43441406 670.44344727 746.86882813 669.88689453 747.31640625 669.31347656 C773.24468412 635.92811042 793.57183339 598.23784112 807.20581055 558.26245117 C807.92778905 556.20571129 808.70335599 554.18099786 809.5 552.15234375 C811.50180944 546.86330402 812.87442276 541.4009748 814.3125 535.9375 C814.61446289 534.79788818 814.91642578 533.65827637 815.22753906 532.48413086 C815.84997555 530.13272222 816.47090345 527.78091374 817.09033203 525.42871094 C817.93854421 522.23163852 818.80710135 519.04097772 819.68359375 515.8515625 C820.20597717 513.92194212 820.72812421 511.99225773 821.25 510.0625 C821.48372314 509.2264624 821.71744629 508.3904248 821.95825195 507.52905273 C826.05547047 492.17950888 827.5435863 476.51065567 828.1875 460.6875 C828.22669556 459.78692871 828.26589111 458.88635742 828.30627441 457.95849609 C829.7701184 423.67458767 829.42758726 389.34508647 828.125 355.0625 C828.08588501 353.99854004 828.04677002 352.93458008 828.00646973 351.83837891 C827.38068013 335.34017262 825.73319475 320.17717724 822 304 C812.76 304 803.52 304 794 304 C797.38076351 292.7307883 797.38076351 292.7307883 799.33984375 288.16015625 C799.77022949 287.15227051 800.20061523 286.14438477 800.64404297 285.10595703 C803.39167483 278.81222774 806.17506905 272.53488711 808.98242188 266.26757812 C811.57240157 260.43197352 813.92216848 254.58259036 816.05493164 248.56567383 C817.49230913 244.66347801 819.20355491 240.90247773 820.9375 237.125 C823.20584035 232.1070934 825.40165953 227.10513791 827.3125 221.9375 C829.77510031 215.33974832 832.6413945 208.93456538 835.5 202.5 C838.80220633 195.06582169 842.00210727 187.65554378 844.828125 180.02734375 C846.5383962 175.60914316 848.47875436 171.29877031 850.40185547 166.9699707 C852.80207784 161.53479463 854.96965003 156.04126515 857.0546875 150.4765625 C858 148 858 148 859 146 C859.09183315 144.58084345 859.12193551 143.15744474 859.12025452 141.73532104 C859.12162918 140.84067139 859.12300385 139.94602173 859.12442017 139.02426147 C859.12082489 138.04027374 859.11722961 137.05628601 859.11352539 136.04248047 C859.11374443 134.49122467 859.11374443 134.49122467 859.1139679 132.90863037 C859.11326924 129.47812834 859.10547901 126.04768009 859.09765625 122.6171875 C859.0957919 120.24350006 859.09436808 117.86981223 859.09336853 115.49612427 C859.08954466 109.23910465 859.07971547 102.98210813 859.06866455 96.72509766 C859.05844764 90.3440787 859.05387031 83.96305602 859.04882812 77.58203125 C859.0380931 65.05467763 859.02120961 52.52734004 859 40 C857.56801912 40.94768384 856.13696539 41.89676872 854.70629883 42.84643555 C853.51077141 43.63898994 853.51077141 43.63898994 852.29109192 44.44755554 C849.32236151 46.45916801 846.51271456 48.6028964 843.6875 50.8125 C842.56296241 51.68679301 841.43795229 52.56047852 840.3125 53.43359375 C839.75691406 53.86526855 839.20132813 54.29694336 838.62890625 54.74169922 C834.67432767 57.79654004 830.65916765 60.7718772 826.65576172 63.76220703 C824.19348451 65.60292444 821.73450355 67.44802717 819.27539062 69.29296875 C817.91617293 70.3127097 816.55679584 71.33223823 815.19726562 72.3515625 C811.82625078 74.87902783 808.45650903 77.40814943 805.08984375 79.94140625 C803.78918067 80.91942801 802.48839925 81.8972924 801.1875 82.875 C800.54570801 83.35735107 799.90391602 83.83970215 799.24267578 84.33666992 C792.90296502 89.09106386 786.51665576 93.78195769 780.11791992 98.45654297 C779.34939697 99.02002441 778.58087402 99.58350586 777.7890625 100.1640625 C777.10537598 100.66373535 776.42168945 101.1634082 775.71728516 101.67822266 C772.0866316 104.47270067 771.42127803 106.69762277 770 111 C768.2085908 115.16954852 766.27533946 119.27634842 764.36523438 123.39257812 C762.17713728 128.17289673 760.30722688 132.91389698 758.70874023 137.9206543 C757.63546294 141.06950126 756.20374883 144.01098372 754.75 147 C752.2176242 152.29058135 749.87729032 157.62151511 747.6875 163.0625 C744.5273867 170.90779289 741.04679104 178.58951393 737.46362305 186.25024414 C735.22868533 191.0792188 733.31876099 195.85787771 731.70654297 200.92724609 C730.62498245 204.10017242 729.16206473 207.05574387 727.6875 210.0625 C725.16034474 215.30848429 722.96760448 220.58306991 721 226.0625 C718.69475752 232.46149528 715.84839385 238.39487943 712.71875 244.44140625 C710.58887988 248.85120552 708.92995185 253.3527717 707.27392578 257.95556641 C705.29848628 263.37785252 702.96043904 268.56061419 700.47143555 273.76391602 C698.43643769 278.0255279 696.60876204 282.32112238 694.90234375 286.72265625 C693.67352976 289.8239487 692.30857348 292.85756337 690.9296875 295.89453125 C689.89484562 298.23814374 688.95147198 300.62132005 688 303 C664.9 303 641.8 303 618 303 C616.35 298.71 614.7 294.42 613 290 C611.87139535 287.74044433 610.69722007 285.50166551 609.4375 283.3125 C607.01344114 278.94711778 604.99407528 274.68360084 603.23828125 270.01953125 C601.07688924 264.74900751 598.55449397 259.64278567 596.08447266 254.51123047 C595.70210449 253.71475098 595.31973633 252.91827148 594.92578125 252.09765625 C594.40624878 251.02269897 594.40624878 251.02269897 593.8762207 249.92602539 C593 248 593 248 592 245 C593.28390625 245.05800781 594.5678125 245.11601562 595.890625 245.17578125 C612.18898896 245.68224075 629.65290108 244.39832125 643 234 C643.99773437 233.28457031 643.99773437 233.28457031 645.015625 232.5546875 C654.23229851 225.33375038 660.65553027 214.2690135 665.94140625 204.01171875 C667 202 667 202 668 201 C668.09439978 198.73008113 668.11742226 196.45718033 668.11352539 194.18530273 C668.11374443 193.11706772 668.11374443 193.11706772 668.1139679 192.0272522 C668.1132687 189.66266888 668.10547606 187.29816339 668.09765625 184.93359375 C668.09579209 183.29834537 668.09436818 181.66309643 668.09336853 180.02784729 C668.08954318 175.71565215 668.07971275 171.40349048 668.06866455 167.09130859 C668.0584508 162.69434054 668.05387099 158.29736711 668.04882812 153.90039062 C668.03809049 145.26690998 668.02049356 136.63346301 668 128 C677.9 128 687.8 128 698 128 C698 98.96 698 69.92 698 40 C668.63 40 639.26 40 609 40 Z " fill="#FDFDFD" transform="translate(0,0)"/>
<path d="M0 0 C29.37 0 58.74 0 89 0 C89 29.04 89 58.08 89 88 C79.1 88 69.2 88 59 88 C59.02618408 90.16949219 59.05236816 92.33898437 59.0793457 94.57421875 C59.16239686 101.76253965 59.217504 108.9508824 59.25906086 116.13955688 C59.28509421 120.49580376 59.32037635 124.85155681 59.37719727 129.20751953 C59.43174256 133.41562719 59.46146759 137.62326151 59.47438622 141.83169556 C59.48358595 143.43282517 59.50155102 145.03393047 59.52865028 146.63485718 C59.78231105 162.24895303 59.78231105 162.24895303 54 169 C53.2453156 170.17632733 52.50582937 171.36269177 51.7890625 172.5625 C42.84931231 186.84451949 33.72881292 197.0971186 17 202 C16.06027344 202.2990625 15.12054687 202.598125 14.15234375 202.90625 C3.90477324 205.76234707 -6.46090483 205.29146555 -17 205 C-13.90586711 212.06883042 -10.62593003 219.03584757 -7.26757812 225.98242188 C-5.51795442 229.63964212 -3.85455964 233.26747403 -2.4765625 237.08203125 C-0.95731292 241.27419915 1.00994854 245.17222001 3.0625 249.125 C3.76566839 250.47972808 4.46496652 251.83647285 5.16015625 253.1953125 C5.61853882 254.07727295 5.61853882 254.07727295 6.08618164 254.97705078 C7.25748406 257.57000078 8.10025898 260.30077693 9 263 C32.1 263 55.2 263 79 263 C83.34049544 252.9052798 83.34049544 252.9052798 87.375 242.6875 C89.62566127 236.72687773 92.30179344 231.03473036 95.05810547 225.29760742 C97.54374005 220.08316562 99.64894353 214.80217988 101.65234375 209.3828125 C103.28282311 205.290073 105.1545434 201.34414176 107.0625 197.375 C109.68180789 191.92486866 111.98441759 186.52338226 113.9453125 180.796875 C115.25798972 177.31584948 116.83514442 173.9790331 118.4375 170.625 C120.58999705 166.1165893 122.5826571 161.63015892 124.3125 156.9375 C126.95987387 149.82213301 130.16435546 142.9835827 133.34033203 136.09130859 C136.06532391 130.14652101 138.52939462 124.20125204 140.79296875 118.06640625 C142.21078445 114.46451199 143.83387365 110.99219375 145.5 107.5 C148.17615638 101.88914211 150.50431607 96.22974601 152.6796875 90.40234375 C154.98313022 84.46654904 157.57901964 78.65209894 160.19897461 72.84985352 C160.98560234 71.03324933 161.6718393 69.17422345 162.35546875 67.31640625 C164.28509122 63.42507733 166.17709419 61.83629238 169.6875 59.3125 C170.5386438 58.68867432 170.5386438 58.68867432 171.40698242 58.05224609 C172.6287102 57.15707297 173.85486111 56.26791081 175.08496094 55.38427734 C177.6895751 53.50154375 180.25235363 51.5654596 182.81762695 49.62963867 C184.83943203 48.10468644 186.86618919 46.58655677 188.89453125 45.0703125 C192.93277103 42.05097822 196.9667762 39.02602982 201 36 C202.32810545 35.00388019 203.65623049 34.00778648 204.984375 33.01171875 C205.64373047 32.51720215 206.30308594 32.02268555 206.98242188 31.51318359 C231.25 13.3125 231.25 13.3125 234.09765625 11.1796875 C236.19261239 9.6063557 238.28354095 8.02839819 240.37109375 6.4453125 C240.92571289 6.02596436 241.48033203 5.60661621 242.05175781 5.17456055 C243.60211307 4.00207546 245.15071763 2.82727651 246.69921875 1.65234375 C249 0 249 0 250 0 C250.11609955 13.63061381 250.20482011 27.26110902 250.25906086 40.8921175 C250.28510017 47.22228332 250.32039548 53.55210962 250.37719727 59.88208008 C250.43171788 65.99643964 250.46146312 72.11047362 250.47438622 78.2250576 C250.48359005 80.55215768 250.50156282 82.87924093 250.52865028 85.20620155 C250.56520598 88.47810319 250.56993413 91.74867739 250.56762695 95.02075195 C250.58560333 95.9723822 250.60357971 96.92401245 250.62210083 97.90447998 C250.56646242 105.2466717 248.28560931 110.51809597 245 117 C244.28859052 119.00551947 243.61011901 121.0238812 243 123.0625 C241.82317414 126.72840595 240.54495739 130.09556415 238.75 133.5 C236.274599 138.23326676 234.31937874 143.0953109 232.375 148.0625 C228.78933083 157.21102386 224.88877794 166.19808656 220.85693359 175.15844727 C218.31597061 180.84485788 216.03279621 186.54718722 213.95166016 192.41674805 C212.5119134 196.32489592 210.79922161 200.09174708 209.0625 203.875 C206.74664819 208.99525756 204.51884938 214.10372528 202.5625 219.375 C200.43430689 225.07913664 197.96435961 230.5898529 195.4375 236.125 C191.2627558 245.2870969 187.76947807 254.30682676 185 264 C194.24 264 203.48 264 213 264 C213.639375 266.76375 214.27875 269.5275 214.9375 272.375 C215.13722412 273.22368652 215.33694824 274.07237305 215.54272461 274.94677734 C217.58307195 283.95308637 218.1369155 293.02876493 218.53515625 302.234375 C218.59989388 303.69022003 218.59989388 303.69022003 218.66593933 305.17547607 C220.33269413 343.67517506 220.86355425 382.17787126 219.1875 420.6875 C219.13523254 421.97188965 219.13523254 421.97188965 219.08190918 423.28222656 C218.3685914 440.10047457 215.99123284 456.38272046 211.75 472.6875 C211.29765991 474.45625488 211.29765991 474.45625488 210.83618164 476.26074219 C206.7316757 492.1339106 202.46136022 507.9426611 196.45703125 523.21484375 C195.42278319 525.85255578 194.47349513 528.50467169 193.57421875 531.19140625 C190.45055178 540.51682938 186.66877886 549.1363551 182.109375 557.84423828 C180.93364662 560.12893934 179.80646908 562.43309141 178.6875 564.74609375 C167.03593381 588.75366246 152.64004294 611.14372997 136 632 C135.29875 632.89460937 134.5975 633.78921875 133.875 634.7109375 C124.19272214 646.84938143 113.23183404 657.8606309 102.3125 668.875 C101.03101074 670.17606689 101.03101074 670.17606689 99.72363281 671.50341797 C93.79769992 677.43730056 87.55425927 682.77550595 81 688 C79.86867313 688.93562093 78.74032162 689.87487252 77.6171875 690.8203125 C76.71226562 691.58085938 75.80734375 692.34140625 74.875 693.125 C73.4656807 694.31074457 72.0572977 695.49807338 70.67530727 696.71555996 C69 698 69 698 66.76598454 699.09121037 C63.76990844 700.77347759 62.05109419 702.21774429 60 705 C58.6105769 711.51548777 58.80326093 717.97679043 58.88647461 724.61303711 C58.87920583 726.66642985 58.86798916 728.7198118 58.85315037 730.7731638 C58.82433511 736.26580168 58.8494588 741.75694683 58.88584137 747.24948883 C58.91180101 752.40583185 58.88900575 757.56151292 58.87023926 762.71789551 C58.84373314 777.79109037 58.8953793 792.86434068 58.9375 807.9375 C58.958125 841.618125 58.97875 875.29875 59 910 C-57.16 910 -173.32 910 -293 910 C-293 866.44 -293 822.88 -293 778 C-341.51 778 -390.02 778 -440 778 C-440 716.62 -440 655.24 -440 592 C-444.62 591.34 -449.24 590.68 -454 590 C-458.07200609 589.07827857 -462.09182369 588.12287814 -466.125 587.0625 C-467.10597656 586.81048828 -468.08695312 586.55847656 -469.09765625 586.29882812 C-471.06942302 585.79228357 -473.04070274 585.28383911 -475.01147461 584.7734375 C-485.76574394 581.93408646 -485.76574394 581.93408646 -496.6875 579.875 C-501.89497717 579.10502283 -501.89497717 579.10502283 -503 578 C-505.31023519 577.54951936 -507.61709399 577.14101217 -509.9375 576.75 C-518.46652043 575.23562806 -526.71639487 573.00500194 -535.02197266 570.56689453 C-536.78041178 570.06293308 -538.55170663 569.60432393 -540.32421875 569.15234375 C-541.22785156 568.91644531 -542.13148438 568.68054688 -543.0625 568.4375 C-544.19365234 568.15712891 -544.19365234 568.15712891 -545.34765625 567.87109375 C-547 567 -547 567 -547.72070312 565.20556641 C-548.07341267 562.42027096 -547.46065205 561.28661366 -546.12109375 558.83984375 C-545.48469971 557.65612183 -545.48469971 557.65612183 -544.83544922 556.44848633 C-544.37412598 555.61986084 -543.91280273 554.79123535 -543.4375 553.9375 C-542.97875488 553.09147217 -542.52000977 552.24544434 -542.04736328 551.3737793 C-540.70881935 548.9098879 -539.35537997 546.45465766 -538 544 C-537.3305862 542.76901389 -536.66242361 541.53734566 -535.99609375 540.3046875 C-534.67388597 537.86417869 -533.34287105 535.4291773 -532 533 C-531.34 533 -530.68 533 -530 533 C-529.88245361 532.26910156 -529.76490723 531.53820312 -529.64379883 530.78515625 C-528.99438334 527.97570159 -528.08930882 525.95226788 -526.69921875 523.4375 C-525.98475586 522.13522461 -525.98475586 522.13522461 -525.25585938 520.80664062 C-524.73830078 519.88044922 -524.22074219 518.95425781 -523.6875 518 C-523.15060547 517.02740234 -522.61371094 516.05480469 -522.06054688 515.05273438 C-517.94670661 507.62670066 -513.73732872 500.2560696 -509.50268555 492.8984375 C-505.3981518 485.7496801 -501.44906126 478.52296441 -497.52416992 471.27441406 C-492.50570266 462.03322135 -487.2830234 452.9119816 -482.0246582 443.80566406 C-481.31548616 442.55595321 -480.64260442 441.28520884 -480 440 C-479.34 440 -478.68 440 -478 440 C-477.82259277 438.9025647 -477.82259277 438.9025647 -477.64160156 437.78295898 C-476.99813477 434.99190954 -476.10777389 432.97428045 -474.734375 430.47265625 C-474.26225586 429.60898437 -473.79013672 428.7453125 -473.30371094 427.85546875 C-472.53462402 426.47294922 -472.53462402 426.47294922 -471.75 425.0625 C-470.96157715 423.61617188 -470.96157715 423.61617188 -470.15722656 422.140625 C-467.35284523 417.04415357 -464.44300759 412.05575772 -461.3125 407.15234375 C-452.3744919 393.20051454 -452.3744919 393.20051454 -452 377 C-452.37662905 373.69161493 -452.68768679 370.37750296 -453 367.0625 C-453.09128174 366.14436523 -453.18256348 365.22623047 -453.27661133 364.28027344 C-455.31764979 342.25107059 -454.2259266 319.96907112 -452 298 C-451.88221191 296.8337207 -451.76442383 295.66744141 -451.64306641 294.46582031 C-451.27588619 290.91305172 -450.89289169 287.36251249 -450.5 283.8125 C-450.38164795 282.73121826 -450.2632959 281.64993652 -450.14135742 280.53588867 C-450.02252197 279.51986572 -449.90368652 278.50384277 -449.78125 277.45703125 C-449.67876953 276.56991455 -449.57628906 275.68279785 -449.47070312 274.76879883 C-448.90777496 271.45750819 -447.92273318 268.22956612 -447 265 C-435.12 265 -423.24 265 -411 265 C-410.14266288 251.41056452 -410.14266288 251.41056452 -414.01171875 238.71484375 C-416.55973103 236.50240429 -419.10987919 234.73575769 -422 233 C-433.75264424 223.7945068 -442.46981414 211.74827754 -450 199 C-450.42200684 198.28618164 -450.84401367 197.57236328 -451.27880859 196.83691406 C-463.89136666 175.28833308 -468.23437026 156.11075495 -468.375 131.375 C-468.38294586 130.64295349 -468.39089172 129.91090698 -468.39907837 129.15667725 C-468.6322361 101.15658955 -460.18887974 73.89304313 -441 53 C-440.30519531 52.19949219 -439.61039062 51.39898437 -438.89453125 50.57421875 C-422.03489076 31.31921951 -402.23930759 13.11550644 -377 6 C-376.33887207 5.79004395 -375.67774414 5.58008789 -374.99658203 5.36376953 C-354.13885122 -1.18009942 -330.22067503 -1.3638386 -308.93701172 3.56445312 C-306.99223097 4.00174691 -305.0286433 4.35237756 -303.06640625 4.703125 C-287.06628636 7.77717626 -272.61823578 16.97655897 -260 27 C-259.21238281 27.58652344 -258.42476563 28.17304687 -257.61328125 28.77734375 C-237.71949006 43.92994155 -221.02171364 65.11000568 -213 89 C-212.59136719 90.18851562 -212.18273437 91.37703125 -211.76171875 92.6015625 C-208.64684068 101.94274214 -206.58822638 111.28986798 -205 121 C-204.01 121.33 -203.02 121.66 -202 122 C-201.92523438 121.37738281 -201.85046875 120.75476563 -201.7734375 120.11328125 C-200.37902408 110.31137513 -197.54284129 100.98753299 -194.73730469 91.51318359 C-194.0699894 89.23856652 -193.4229152 86.9599109 -192.7890625 84.67578125 C-192.44617188 83.44214844 -192.10328125 82.20851563 -191.75 80.9375 C-191.45609375 79.87402344 -191.1621875 78.81054688 -190.859375 77.71484375 C-190 75 -190 75 -188.98046875 73.04296875 C-187.63210766 70.23343547 -187.16182669 67.42919591 -186.5625 64.375 C-185.06309834 57.11156684 -183.22569953 50.11181877 -180.5625 43.1875 C-177.12900339 34.23524182 -174.66006879 25.05844867 -172.7109375 15.6796875 C-172 13 -172 13 -170 10 C-164.07492903 11.84551391 -158.55762433 14.06477531 -152.9375 16.6875 C-149.91112691 18.03970925 -146.85585733 19.2179159 -143.75 20.375 C-138.21593622 22.46010934 -132.91723937 24.86813301 -127.58691406 27.41357422 C-123.61483897 29.29341747 -119.62165772 30.96448046 -115.5 32.5 C-108.1294854 35.25262462 -101.09944846 38.62485237 -94 42 C-92.06517401 42.90159414 -90.12792666 43.79802375 -88.1875 44.6875 C-87.41792969 45.04199219 -86.64835937 45.39648438 -85.85546875 45.76171875 C-83.35276292 46.84702347 -80.83776287 47.86185416 -78.30078125 48.86328125 C-72.27461289 51.25887745 -66.39488986 53.94577698 -60.5 56.64453125 C-55.48417118 58.92516591 -50.43310015 61.04536556 -45.30761719 63.06689453 C-41.08133731 64.77582827 -36.99832355 66.77188217 -32.8828125 68.73046875 C-30.55346974 69.75626333 -28.48240108 70.50232056 -26 71 C-27.24612167 74.73836501 -28.14530132 74.91014927 -31.5625 76.6875 C-33.05136719 77.46867187 -33.05136719 77.46867187 -34.5703125 78.265625 C-39.02974233 80.5207353 -43.50755465 82.73800192 -47.98852539 84.94995117 C-54.16340843 88.02371345 -60.10003332 91.42426262 -66 95 C-65.48869428 101.05546378 -62.8489638 105.89661216 -60.1875 111.25 C-57.19227383 117.32841786 -54.39485899 123.39125047 -51.93139648 129.70507812 C-50.61299184 132.95357189 -49.0516686 136.01221849 -47.4375 139.125 C-45.59778286 142.67331858 -43.897645 146.16136145 -42.54296875 149.91796875 C-40.72435916 154.92501841 -38.25709542 159.55458345 -35.78515625 164.26367188 C-35.44097656 164.93333984 -35.09679687 165.60300781 -34.7421875 166.29296875 C-34.4313623 166.8861792 -34.12053711 167.47938965 -33.80029297 168.09057617 C-32.84960966 170.35881722 -32.41693703 172.58192138 -32 175 C-25.75535892 175.005352 -19.51257204 174.97148436 -13.26831055 174.90234375 C-11.14728074 174.88425257 -9.02613372 174.87660267 -6.9050293 174.87988281 C-3.84332816 174.88275968 -0.78402356 174.84723971 2.27734375 174.8046875 C3.6841465 174.8183284 3.6841465 174.8183284 5.11936951 174.83224487 C12.14089485 174.67962778 16.68295018 172.59127906 22 168 C23.99115815 165.5397415 23.99115815 165.5397415 25 162.9375 C25.37125 162.12152344 25.7425 161.30554688 26.125 160.46484375 C27.77364163 155.82067916 28.13750674 151.46915439 28.20532227 146.55737305 C28.22526749 145.27642258 28.24521271 143.99547211 28.26576233 142.67570496 C28.28274278 141.28771076 28.29962173 139.89971533 28.31640625 138.51171875 C28.33699424 137.08396325 28.35799118 135.65621359 28.37937927 134.22846985 C28.43440953 130.48193105 28.48390227 126.73533899 28.53222656 122.9887085 C28.59144417 118.48733482 28.65756671 113.98605787 28.72252655 109.4847641 C28.82029624 102.65656879 28.90931603 95.82830965 29 89 C19.43 89 9.86 89 0 89 C0 59.63 0 30.26 0 0 Z M-390.4085083 294.44558716 C-392.11390239 294.4747158 -392.11390239 294.4747158 -393.85374889 294.5044329 C-397.06254683 294.56068278 -400.27115383 294.62317806 -403.47978592 294.68814278 C-404.41611375 294.70444916 -405.35244159 294.72075554 -406.31714299 294.73755606 C-415.78646503 294.31214663 -415.78646503 294.31214663 -424 297 C-425.14739457 303.84055042 -425.17744683 310.63150091 -425.203125 317.5546875 C-425.20882507 318.76907501 -425.21452515 319.98346252 -425.22039795 321.23464966 C-425.22982419 323.80827981 -425.23637246 326.38192189 -425.24023438 328.95556641 C-425.24981322 332.80003572 -425.28080635 336.64394009 -425.3125 340.48828125 C-425.37310279 355.0707697 -424.59877975 369.23362855 -422.64746094 383.68798828 C-421.14261874 395.36482355 -421.14261874 395.36482355 -424.34375 401.00390625 C-424.84382568 401.90165771 -425.34390137 402.79940918 -425.85913086 403.72436523 C-426.40061768 404.66094971 -426.94210449 405.59753418 -427.5 406.5625 C-428.05244385 407.54484619 -428.6048877 408.52719238 -429.17407227 409.53930664 C-430.76871488 412.36779089 -432.38171487 415.18499539 -434 418 C-434.70802799 419.24683035 -435.41522661 420.49413256 -436.12109375 421.7421875 C-437.34607594 423.89710241 -438.57801257 426.0480769 -439.81640625 428.1953125 C-441.57183899 431.24232021 -443.30197804 434.30305694 -445.02734375 437.3671875 C-445.57310059 438.33624023 -446.11885742 439.30529297 -446.68115234 440.30371094 C-447.80579102 442.30141158 -448.92981961 444.29945581 -450.05322266 446.29785156 C-452.66973239 450.9370098 -455.31096928 455.55424833 -458.05859375 460.1171875 C-458.52539551 460.89408936 -458.99219727 461.67099121 -459.47314453 462.47143555 C-460.34257103 463.90996713 -461.21944255 465.34403501 -462.10498047 466.77270508 C-464.19042065 470.22264396 -465 471.86155243 -465 476 C-465.66 476 -466.32 476 -467 476 C-467.41342651 476.75168457 -467.41342651 476.75168457 -467.83520508 477.51855469 C-468.67469535 479.04490064 -469.51430724 480.5711797 -470.35400391 482.09741211 C-471.33502008 483.88160038 -472.31514821 485.66627718 -473.29443359 487.45141602 C-475.8907148 492.18115587 -478.50109909 496.90189697 -481.14453125 501.60546875 C-481.64428467 502.49975586 -482.14403809 503.39404297 -482.65893555 504.31542969 C-483.6198148 506.03397143 -484.58594394 507.74959071 -485.55786133 509.46191406 C-485.99509521 510.24663086 -486.4323291 511.03134766 -486.8828125 511.83984375 C-487.26840332 512.52425537 -487.65399414 513.20866699 -488.05126953 513.91381836 C-489.11594703 516.25495816 -489.58458364 518.46915994 -490 521 C-490.66 521 -491.32 521 -492 521 C-492.29245605 521.55985596 -492.58491211 522.11971191 -492.88623047 522.6965332 C-494.21408477 525.23610065 -495.54451256 527.77431114 -496.875 530.3125 C-497.33519531 531.19357422 -497.79539062 532.07464844 -498.26953125 532.98242188 C-498.93662109 534.25375977 -498.93662109 534.25375977 -499.6171875 535.55078125 C-500.02565918 536.33106689 -500.43413086 537.11135254 -500.85498047 537.9152832 C-502 540 -502 540 -504 543 C-504.41679297 545.54230847 -504.41679297 545.54230847 -504 548 C-500.71549409 550.18967061 -498.40851675 550.71107349 -494.5625 551.5 C-492.66757812 551.89058594 -492.66757812 551.89058594 -490.734375 552.2890625 C-487.59767267 552.88621713 -484.46949055 553.40234322 -481.3125 553.875 C-475.20869911 554.84901078 -469.31751137 556.43185231 -463.35644531 558.03588867 C-452.3028924 561.00940385 -441.24922183 563.75764022 -429.92578125 565.49609375 C-425.47345491 566.26291631 -421.10168034 567.33995221 -416.71484375 568.4140625 C-413.97414615 569.10548481 -413.97414615 569.10548481 -411 569 C-411 628.4 -411 687.8 -411 749 C-362.49 749 -313.98 749 -264 749 C-264 792.56 -264 836.12 -264 881 C-166.98 881 -69.96 881 30 881 C29.81427153 818.59168772 29.81427153 818.59168772 29.48706055 756.18408203 C29.49182129 744.10522461 29.49182129 744.10522461 29.51057434 738.44796753 C29.51918543 734.50177797 29.4913857 730.55765979 29.44136047 726.61178589 C29.37866642 721.57186706 29.37872202 716.53554625 29.42343867 711.49547553 C29.42927089 709.65004245 29.41339985 707.80437701 29.37288797 705.95937943 C29.09588141 692.56823065 29.09588141 692.56823065 32.24573922 688.31977606 C35.72730399 684.85266291 39.77552156 682.48449111 44 680 C46.21387995 678.40799122 48.35082779 676.74270722 50.5 675.0625 C51.10473145 674.59884033 51.70946289 674.13518066 52.33251953 673.6574707 C67.13965672 662.1602537 80.72397125 649.34012954 94 636.125 C94.69383789 635.43583496 95.38767578 634.74666992 96.10253906 634.03662109 C100.60374501 629.52128775 104.87140952 624.85782521 109 620 C109.47179687 619.44554199 109.94359375 618.89108398 110.4296875 618.31982422 C129.49795483 595.62114617 145.48700849 569.85682418 158 543 C158.32661621 542.3080957 158.65323242 541.61619141 158.98974609 540.90332031 C164.14768308 529.91713633 168.35351888 518.73922071 172.22705078 507.24365234 C173.29046765 504.1568548 174.46565618 501.11435523 175.625 498.0625 C180.33262231 484.84731189 182.90105886 470.91897837 185.625 457.1875 C185.81900391 456.23069336 186.01300781 455.27388672 186.21289062 454.28808594 C190.08322593 434.16890225 191.44383964 414.29266648 191.328125 393.83203125 C191.32505496 391.40882994 191.32318833 388.98562685 191.32244873 386.56242371 C191.31789451 381.53462752 191.30365324 376.50699589 191.28125 371.47924805 C191.25280306 365.0668167 191.24201532 358.65451292 191.2375679 352.24202442 C191.23239607 346.06367736 191.21789453 339.88536143 191.203125 333.70703125 C191.20124428 332.54894266 191.19936356 331.39085407 191.19742584 330.19767189 C192.77294533 311.6712046 192.77294533 311.6712046 189 295 C182.91955452 293.90703869 176.7496323 293.85677142 170.59161758 293.87415886 C169.68370144 293.87270542 168.77578529 293.87125198 167.84035653 293.86975449 C164.80552092 293.86611236 161.7707361 293.86957276 158.73590088 293.87301636 C156.53438884 293.87186377 154.33287699 293.87027532 152.13136554 293.86828911 C146.0857656 293.86411329 140.04018145 293.86617879 133.99458146 293.86927533 C128.14056647 293.8713045 122.28655482 293.86864026 116.43254029 293.86612797 C103.70979753 293.86086142 90.98705979 293.8613198 78.26431656 293.86420688 C67.10267077 293.86672691 55.94102681 293.86737712 44.7793808 293.86618423 C44.03767746 293.86610785 43.29597412 293.86603146 42.53179492 293.86595276 C39.5201539 293.86564138 36.50851289 293.86532297 33.49687188 293.864993 C5.22136833 293.86193213 -23.05413205 293.8647079 -51.32963512 293.8700899 C-76.33841081 293.87481409 -101.34718139 293.87442931 -126.35595703 293.86962891 C-154.51481017 293.86424181 -182.67366047 293.86217074 -210.83251405 293.86524117 C-213.85217174 293.86556181 -216.87182943 293.86587465 -219.89148712 293.86618423 C-221.00657585 293.86630285 -221.00657585 293.86630285 -222.14419163 293.86642386 C-233.2562619 293.8675502 -244.3683301 293.86625169 -255.48040009 293.86370468 C-268.17956982 293.86080823 -280.87873378 293.86163648 -293.57790282 293.86698543 C-300.03298326 293.86961646 -306.48805568 293.87071878 -312.94313622 293.86733627 C-338.76929897 293.85499265 -364.58605632 293.98089872 -390.4085083 294.44558716 Z " fill="#030303" transform="translate(609,40)"/>
<path d="M0 0 C18.74247072 17.92864486 29.18873365 42.78976585 29.82519531 68.60913086 C29.88202169 88.46724519 27.6033493 106.01983201 17.27294922 123.19238281 C16.64259766 124.2584375 16.01224609 125.32449219 15.36279297 126.42285156 C10.49655631 134.14687813 4.65621053 140.71661047 -1.72705078 147.19238281 C-2.41025391 147.88847656 -3.09345703 148.58457031 -3.79736328 149.30175781 C-7.4374611 152.75628201 -10.56177482 155.19601249 -15.25439453 157.01269531 C-20.88724525 159.47515587 -25.53381639 161.74202312 -28.72705078 167.19238281 C-31.91249322 179.19882487 -30.36918742 192.95543934 -29.72705078 205.19238281 C-38.96705078 205.19238281 -48.20705078 205.19238281 -57.72705078 205.19238281 C-57.97587067 193.33533192 -58.17753814 181.48002263 -58.29698467 169.62094879 C-58.35432281 164.11382334 -58.43204489 158.60858075 -58.55688477 153.10253906 C-58.67667942 147.78555409 -58.74223092 142.47037596 -58.77070045 137.15214539 C-58.79097886 135.12655691 -58.83058279 133.10106416 -58.89008141 131.07624817 C-59.33831282 115.18590691 -59.33831282 115.18590691 -55.35440063 110.25683594 C-52.5622449 108.22357471 -49.81096453 106.72942865 -46.72705078 105.19238281 C-39.56236654 99.23095094 -31.90952079 90.73660504 -30.72705078 81.19238281 C-29.8220741 67.38036163 -31.8223268 58.06236348 -40.39501953 46.80175781 C-47.64822001 38.6859489 -59.05587917 31.04966234 -70.13720703 29.95410156 C-82.96512798 29.59514648 -94.45863508 35.18205868 -103.91455078 43.69238281 C-112.33745717 52.50904295 -116.33174462 64.19643251 -116.06689453 76.19628906 C-115.28552345 89.76491136 -105.7922457 99.6212665 -96.25439453 108.24707031 C-93.31650835 110.63660761 -93.31650835 110.63660761 -87.72705078 113.19238281 C-87.72705078 143.88238281 -87.72705078 174.57238281 -87.72705078 206.19238281 C-97.62705078 206.19238281 -107.52705078 206.19238281 -117.72705078 206.19238281 C-117.59169922 202.1434375 -117.59169922 202.1434375 -117.45361328 198.01269531 C-117.4139165 195.3679559 -117.39845999 192.72409069 -117.38525391 190.07910156 C-117.36332798 188.25538031 -117.31660066 186.43176862 -117.24365234 184.609375 C-116.54538848 174.49671592 -116.54538848 174.49671592 -120.09332275 165.39508057 C-123.86180305 161.8682274 -128.17846165 159.56728719 -132.72705078 157.19238281 C-148.92683274 145.92316529 -159.47132734 131.64156843 -167.85083008 113.98706055 C-168.62113792 112.40931384 -169.46741606 110.86913827 -170.32470703 109.33691406 C-176.55316474 95.37059524 -176.55933759 78.1949646 -175.72705078 63.19238281 C-175.68837891 62.46293457 -175.64970703 61.73348633 -175.60986328 60.98193359 C-174.93190412 50.2716744 -172.02728249 40.92884581 -167.72705078 31.19238281 C-167.43556152 30.52174805 -167.14407227 29.85111328 -166.84375 29.16015625 C-155.3330178 3.14727254 -135.00220658 -13.66571076 -108.83105469 -24.02978516 C-70.91842899 -38.04575469 -28.78838238 -26.78880872 0 0 Z " fill="#FBFBFB" transform="translate(344.72705078125,98.8076171875)"/>
<path d="M0 0 C8.87973879 1.9392533 17.04404769 6.99718509 24.96020508 11.32055664 C27.6214853 12.76817803 30.11844783 14.03948261 33 15 C32.48776425 20.27063632 31.14190232 24.3858744 28.75 29.125 C26.47971624 33.7953145 24.37246972 38.43855423 22.5625 43.3125 C20.59872088 48.5836966 18.38244005 53.69203377 16.0625 58.8125 C13.15882277 65.23108361 10.55364798 71.6918451 8.14868164 78.31176758 C6.21396084 83.57985795 3.90333484 88.59947735 1.49609375 93.6640625 C-0.15664497 97.34928148 -1.56103673 101.08038864 -2.9375 104.875 C-5.1556918 110.98420262 -7.71355001 116.83216821 -10.52612305 122.68896484 C-12.6700514 127.18803419 -14.47576184 131.72111031 -16.078125 136.4375 C-18.83746645 144.10753387 -22.46599112 151.47662461 -25.859375 158.88085938 C-26.24867188 159.73873047 -26.63796875 160.59660156 -27.0390625 161.48046875 C-27.39178223 162.25285889 -27.74450195 163.02524902 -28.10791016 163.82104492 C-29.16519031 166.25524972 -29.16519031 166.25524972 -30 170 C-43.86 170 -57.72 170 -72 170 C-68.62881447 158.76271489 -68.62881447 158.76271489 -66.6953125 154.66796875 C-66.27942871 153.77424561 -65.86354492 152.88052246 -65.43505859 151.9597168 C-65.00273926 151.04488525 -64.57041992 150.13005371 -64.125 149.1875 C-60.90805874 142.26016847 -57.91651381 135.37317629 -55.27734375 128.20703125 C-53.37006891 123.41842989 -51.10838125 118.80931377 -48.875 114.16601562 C-46.60060629 109.39670714 -44.70475464 104.61067727 -42.9921875 99.609375 C-41.44706034 95.54581223 -39.41531721 91.74742035 -37.43359375 87.8828125 C-35.80473522 84.60734221 -34.44177255 81.2913694 -33.12109375 77.8828125 C-29.62748636 68.89925064 -25.97764491 59.97340736 -21.875 51.25 C-19.92042521 47.09330532 -18.16953818 42.92788397 -16.5625 38.625 C-14.50646628 33.13783605 -12.12057218 27.89145704 -9.59716797 22.6105957 C-7.13428766 17.40855477 -5.03378689 12.10873916 -3.04296875 6.70703125 C-2.14722761 4.38213009 -1.16111751 2.20139474 0 0 Z " fill="#F9F9F9" transform="translate(792,134)"/>
<path d="M0 0 C6.49735127 1.98224276 12.46993947 4.56255282 18.609375 7.4609375 C21.87004634 8.94101182 25.14721648 10.24473081 28.5 11.5 C34.14815946 13.61720609 39.57603271 16.07190618 45.03125 18.640625 C48.63361285 20.29012799 52.26539479 21.68190404 56 23 C54.76736651 26.69790046 53.79947549 26.9354846 50.4375 28.6875 C49.61121094 29.12449219 48.78492188 29.56148437 47.93359375 30.01171875 C46.97646484 30.50091797 46.97646484 30.50091797 46 31 C46.61983912 33.78177334 47.46416605 36.19578024 48.70703125 38.7578125 C49.04669922 39.46679688 49.38636719 40.17578125 49.73632812 40.90625 C50.2690332 42.00453125 50.2690332 42.00453125 50.8125 43.125 C53.002296 47.64427879 55.09318384 52.15533164 56.91796875 56.8359375 C59.15766192 62.53327723 61.81342859 68.00241109 64.5 73.5 C67.58695698 79.81690653 70.49379693 86.11796771 73.04833984 92.66894531 C74.51488314 96.26118631 76.27347855 99.68483929 78.0625 103.125 C80.76498787 108.32407189 82.99657581 113.49058347 85 119 C85.5878125 120.1446875 85.5878125 120.1446875 86.1875 121.3125 C87 123 87 123 87 126 C68.85 126 50.7 126 32 126 C27.4663578 115.79930506 22.94428994 105.61127895 18.54296875 95.35546875 C17.19141261 92.41626185 15.67229131 89.76090199 14 87 C13.38157021 85.53515994 12.79836491 84.05498375 12.25 82.5625 C10.57584125 78.24188262 8.60803813 74.12190273 6.5 70 C4.00626632 65.11888791 1.75925021 60.2168354 -0.17578125 55.0859375 C-1.00491918 52.98755052 -1.96254001 51.00243369 -3 49 C-5.59345253 49.43224209 -7.76366233 49.88183116 -10.125 51.0625 C-12 52 -12 52 -15 52 C-14.07405561 39.86823878 -10.73048711 28.9510092 -6.83544922 17.47265625 C-6.11184757 15.3310322 -5.4094908 13.1848742 -4.72265625 11.03125 C-2.2700762 3.4051143 -2.2700762 3.4051143 0 0 Z " fill="#FAFAFA" transform="translate(458,90)"/>
<path d="M0 0 C3.321585 4.30018229 5.28362809 9.5339428 7.046875 14.62890625 C8.85031086 19.11532252 11.22110665 23.35981808 13.4765625 27.6328125 C14.92971673 30.84465595 15.60808913 33.51517091 16 37 C15.10317505 37.2323938 15.10317505 37.2323938 14.18823242 37.46948242 C7.43516035 39.34108362 1.48450702 42.02225917 -4.6875 45.3125 C-5.58533203 45.77333984 -6.48316406 46.23417969 -7.40820312 46.70898438 C-15.78044728 51.11897965 -21.80943777 55.83105404 -26.75 63.9375 C-27.12253906 64.51951172 -27.49507813 65.10152344 -27.87890625 65.70117188 C-33.91654918 75.33366581 -36.15518089 84.96589556 -36.6328125 96.19140625 C-36.67011475 96.92935425 -36.70741699 97.66730225 -36.74584961 98.4276123 C-36.88066412 101.13883545 -37.00208671 103.85071126 -37.125 106.5625 C-37.41375 112.646875 -37.7025 118.73125 -38 125 C-57.47 125 -76.94 125 -97 125 C-97 117.41 -97 109.82 -97 102 C-88.60830641 93.67823719 -88.60830641 93.67823719 -85.05078125 91.55859375 C-66.6915057 80.11271335 -52.45536106 54.67681621 -46.9284668 34.40283203 C-42.26467335 17.50562917 -42.26467335 17.50562917 -34.50830078 13.02539062 C-31.24778599 11.49179653 -27.94930907 10.18279425 -24.5546875 8.97705078 C-20.19734132 7.31056574 -16.16760258 5.01441585 -12.0625 2.8125 C-3.96260117 -1.50733015 -3.96260117 -1.50733015 0 0 Z " fill="#FAFAFA" transform="translate(442,179)"/>
<path d="M0 0 C3.96930989 -0.02465881 7.93859034 -0.04284023 11.90795898 -0.05493164 C13.25920386 -0.05997057 14.61044326 -0.06680177 15.96166992 -0.07543945 C17.90020434 -0.08752419 19.838778 -0.09269828 21.77734375 -0.09765625 C23.52905884 -0.10551147 23.52905884 -0.10551147 25.31616211 -0.11352539 C28 0 28 0 29 1 C29.79574839 4.5149343 30.48387843 8.04682035 31.18359375 11.58203125 C31.86618965 14.4397892 32.70877238 16.42313449 34 19 C34 20.32 34 21.64 34 23 C34.66 23 35.32 23 36 23 C37.26171875 24.5390625 37.26171875 24.5390625 38.6875 26.625 C44.68055182 34.83823808 52.55066295 40.51188439 62.62109375 42.6796875 C76.06091307 44.48931834 88.34587832 42.06909303 99.78125 34.69921875 C108.67913122 27.88482028 114.59945144 17.74237152 116.37109375 6.68359375 C116.59124928 4.79025617 116.79693782 2.89524706 117 1 C118 0 118 0 120.68383789 -0.11352539 C121.85164795 -0.10828857 123.01945801 -0.10305176 124.22265625 -0.09765625 C125.48271484 -0.09443359 126.74277344 -0.09121094 128.04101562 -0.08789062 C129.38151109 -0.07953403 130.72200588 -0.07106907 132.0625 -0.0625 C133.40689942 -0.0574866 134.7513006 -0.05292342 136.09570312 -0.04882812 C139.39717941 -0.03699488 142.69856803 -0.02050971 146 0 C146.07704118 5.70104761 145.63754844 10.50180705 144 16 C143.60361328 17.34964844 143.60361328 17.34964844 143.19921875 18.7265625 C142.47761034 21.15472351 141.74425218 23.57869957 141 26 C140.34 26 139.68 26 139 26 C138.814375 26.94875 138.62875 27.8975 138.4375 28.875 C136.87471469 34.33374305 133.35489086 38.51300606 130 43 C129.49726563 43.75539063 128.99453125 44.51078125 128.4765625 45.2890625 C119.92788459 57.56965057 102.64547447 67.85251609 88.18139648 71.64697266 C82.75294901 72.52548805 77.23463973 72.41254461 71.75 72.4375 C69.86087891 72.48680664 69.86087891 72.48680664 67.93359375 72.53710938 C59.40627236 72.58581163 53.4185588 71.15967554 46 67 C45.0092749 66.49714478 45.0092749 66.49714478 43.99853516 65.98413086 C35.61582672 61.726229 28.62095622 56.713557 22 50 C21.30390625 49.31421875 20.6078125 48.6284375 19.890625 47.921875 C7.83890548 35.30961039 -0.29639276 17.48717295 0 0 Z " fill="#040404" transform="translate(228,378)"/>
<path d="M0 0 C18.15 0 36.3 0 55 0 C60.36164519 9.65096134 60.36164519 9.65096134 62.27099609 15.06591797 C63.51473514 18.36561682 65.1821982 21.44081342 66.8125 24.5625 C70.18187391 31.13943074 73.0406291 37.79408309 75.67578125 44.6953125 C76.94078371 48.03888287 76.94078371 48.03888287 78.73046875 51.1796875 C80 54 80 54 79 58 C60.85 58 42.7 58 24 58 C22.515 53.05 22.515 53.05 21 48 C20.32017804 46.3314661 19.59907433 44.67770631 18.80078125 43.0625 C18.19955444 41.82741699 18.19955444 41.82741699 17.58618164 40.56738281 C17.1658667 39.72014648 16.74555176 38.87291016 16.3125 38 C15.42010373 36.16231742 14.52950987 34.3237586 13.640625 32.484375 C13.19783203 31.56978516 12.75503906 30.65519531 12.29882812 29.71289062 C10.32331529 25.58659388 8.42847153 21.4267928 6.5625 17.25 C6.24514893 16.54875 5.92779785 15.8475 5.60083008 15.125 C3.37896617 10.1241659 1.7496272 5.2488816 0 0 Z " fill="#F9F9F9" transform="translate(505,246)"/>
<path d="M0 0 C0.84111328 -0.03673828 1.68222656 -0.07347656 2.54882812 -0.11132812 C4.94422326 -0.12842452 6.99206375 -0.03396324 9.3125 0.5625 C11.6484375 3.05859375 11.6484375 3.05859375 13.3125 6.5625 C13.63033447 7.21822998 13.94816895 7.87395996 14.27563477 8.54956055 C15.31505293 10.74366259 16.28809993 12.95839089 17.25 15.1875 C17.600625 15.98728271 17.95125 16.78706543 18.3125 17.61108398 C20.5995816 22.84826877 22.79480068 28.11935409 24.9453125 33.4140625 C26.04705268 35.95121275 27.20678146 38.4194001 28.4296875 40.8984375 C28.80158203 41.65890381 29.17347656 42.41937012 29.55664062 43.20288086 C30.29587385 44.70448826 31.04673971 46.20043934 31.81054688 47.68969727 C32.14892578 48.37862061 32.48730469 49.06754395 32.8359375 49.77734375 C33.14450684 50.38698975 33.45307617 50.99663574 33.77099609 51.62475586 C34.3125 53.5625 34.3125 53.5625 33.3125 58.5625 C12.8525 58.5625 -7.6075 58.5625 -28.6875 58.5625 C-28.77 51.941875 -28.8525 45.32125 -28.9375 38.5 C-28.97391602 36.42323975 -29.01033203 34.34647949 -29.04785156 32.20678711 C-29.05954463 30.54281648 -29.06973499 28.87883432 -29.078125 27.21484375 C-29.09858887 26.36539185 -29.11905273 25.51593994 -29.14013672 24.64074707 C-29.14412431 17.78109328 -27.44787263 13.63590458 -22.79296875 8.453125 C-21.84357422 7.64101562 -21.84357422 7.64101562 -20.875 6.8125 C-20.24980469 6.26078125 -19.62460937 5.7090625 -18.98046875 5.140625 C-12.75756613 0.85774142 -7.39958658 0.01724845 0 0 Z " fill="#F9F9F9" transform="translate(462.6875,245.4375)"/>
<path d="M0 0 C9.57 0 19.14 0 29 0 C29 9.24 29 18.48 29 28 C19.43 28 9.86 28 0 28 C0 18.76 0 9.52 0 0 Z " fill="#FBFBFB" transform="translate(639,70)"/>
<path d="M0 0 C3.40602013 1.56618703 5.30509996 3.61019991 7 7 C7.49580089 12.88458765 7.83283074 18.21095619 5.3125 23.625 C1.17942853 27.86977611 -1.5056557 29.18833039 -7.4375 29.4375 C-12.38791207 29.2842571 -15.30881209 28.50662851 -19 25 C-22.75830166 19.8636544 -22.83836166 14.13279777 -22 8 C-17.17372029 -1.48613598 -9.51702708 -1.03468217 0 0 Z " fill="#F5F5F5" transform="translate(279,158)"/>
<path d="M0 0 C29.37 0 58.74 0 89 0 C89 29.04 89 58.08 89 88 C88.67 88 88.34 88 88 88 C88 59.29 88 30.58 88 1 C59.62 1 31.24 1 2 1 C2 29.38 2 57.76 2 87 C11.24 87 20.48 87 30 87 C30 107.13 30 127.26 30 148 C29.67 148 29.34 148 29 148 C29 128.53 29 109.06 29 89 C19.43 89 9.86 89 0 89 C0 59.63 0 30.26 0 0 Z " fill="#555555" transform="translate(609,40)"/>
<path d="M0 0 C0 5.61 0 11.22 0 17 C-5.2497358 16.12504403 -6.85342397 15.61889012 -11 13 C-13.19130534 12.30420546 -13.19130534 12.30420546 -15 12 C-14.70323201 8.86273835 -14.00348283 8.00310845 -11.6015625 5.859375 C-10.61929688 5.16328125 -9.63703125 4.4671875 -8.625 3.75 C-7.64789062 3.04359375 -6.67078125 2.3371875 -5.6640625 1.609375 C-3 0 -3 0 0 0 Z " fill="#EDEDED" transform="translate(829,100)"/>
<path d="M0 0 C1.22958401 4.27495728 0.92547971 8.30835944 0.66015625 12.703125 C0.61983276 13.4461084 0.57950928 14.1890918 0.53796387 14.95458984 C0.386095 17.720098 0.22367239 20.48501845 0.0625 23.25 C-0.4634375 32.53125 -0.4634375 32.53125 -1 42 C-20.47 42 -39.94 42 -60 42 C-60 34.41 -60 26.82 -60 19 C-57.03 16.525 -57.03 16.525 -54 14 C-53.34 14.33 -52.68 14.66 -52 15 C-53.98 16.98 -55.96 18.96 -58 21 C-58.33 27.6 -58.66 34.2 -59 41 C-40.19 41 -21.38 41 -2 41 C-2 33.08 -2 25.16 -2 17 C-1.3125 3.9375 -1.3125 3.9375 0 0 Z " fill="#C6C6C6" transform="translate(405,262)"/>
<path d="M0 0 C0.66 0.33 1.32 0.66 2 1 C1.02804687 1.76570313 0.05609375 2.53140625 -0.9453125 3.3203125 C-4.54150012 6.91650012 -4.74553013 10.05002212 -4.8828125 14.9921875 C-4.88023437 15.94351562 -4.87765625 16.89484375 -4.875 17.875 C-4.895625 18.84953125 -4.91625 19.8240625 -4.9375 20.828125 C-4.98439186 23.21960983 -5.00446121 25.60815163 -5 28 C-5.33 28 -5.66 28 -6 28 C-6.17471382 24.27142795 -6.28098726 20.54391041 -6.375 16.8125 C-6.42527344 15.75740234 -6.47554688 14.70230469 -6.52734375 13.61523438 C-6.67307052 5.91600315 -6.67307052 5.91600315 -4.63769531 3.14599609 C-2.9765625 1.76171875 -2.9765625 1.76171875 0 0 Z " fill="#C4C4C4" transform="translate(351,276)"/>
<path d="M0 0 C0.66 0.33 1.32 0.66 2 1 C-2.62 5.62 -7.24 10.24 -12 15 C-12.66 14.67 -13.32 14.34 -14 14 C-9.61932717 8.89662734 -5.32423478 4.12628195 0 0 Z " fill="#C9C9C9" transform="translate(206,91)"/>
<path d="M0 0 C6.93 0 13.86 0 21 0 C21 0.33 21 0.66 21 1 C19.95199219 1.06058594 18.90398438 1.12117187 17.82421875 1.18359375 C16.44529952 1.26801738 15.06639395 1.35266447 13.6875 1.4375 C12.65206055 1.49647461 12.65206055 1.49647461 11.59570312 1.55664062 C8.52838465 1.74927415 5.93031848 2.02322717 3 3 C2.34 3.99 1.68 4.98 1 6 C0.67 4.02 0.34 2.04 0 0 Z " fill="#AEAEAE" transform="translate(592,245)"/>
<path d="M0 0 C-1.3881735 3.12857014 -3.01101878 5.28189174 -5.4375 7.6875 C-6.03433594 8.28949219 -6.63117188 8.89148438 -7.24609375 9.51171875 C-9 11 -9 11 -12 12 C-10.53033642 8.60140297 -8.61962486 6.35036291 -6 3.75 C-5.29875 3.04359375 -4.5975 2.3371875 -3.875 1.609375 C-2 0 -2 0 0 0 Z " fill="#333333" transform="translate(248,137)"/>
<path d="M0 0 C0.66 0.33 1.32 0.66 2 1 C0.54782324 2.50596108 -0.91192861 4.00462104 -2.375 5.5 C-3.18710937 6.3353125 -3.99921875 7.170625 -4.8359375 8.03125 C-7 10 -7 10 -9 10 C-7.61811547 6.78956118 -6.07578097 4.95063635 -3.375 2.75 C-2.74335938 2.22921875 -2.11171875 1.7084375 -1.4609375 1.171875 C-0.73777344 0.59179688 -0.73777344 0.59179688 0 0 Z " fill="#CECECE" transform="translate(446,249)"/>
<path d="M0 0 C0.66 0 1.32 0 2 0 C0.61811547 3.21043882 -0.92421903 5.04936365 -3.625 7.25 C-4.57246094 8.03117188 -4.57246094 8.03117188 -5.5390625 8.828125 C-6.02117187 9.21484375 -6.50328125 9.6015625 -7 10 C-5.15014033 6.06048404 -2.92434659 3.21678125 0 0 Z " fill="#3C3C3C" transform="translate(423,232)"/>
</svg>
